<svg width="200" height="200" viewBox="0 0 200 200" fill="none" xmlns="http://www.w3.org/2000/svg">
  <circle cx="100" cy="100" r="100" fill="#8B4513"/>
  <circle cx="100" cy="100" r="85" fill="#D2691E"/>
  <path d="M100 50C75 50 55 70 55 95C55 120 75 140 100 140C125 140 145 120 145 95C145 70 125 50 100 50Z" fill="#F5DEB3"/>
  <ellipse cx="100" cy="95" rx="35" ry="30" fill="#8B4513"/>
  <path d="M70 95C70 95 75 85 80 80C85 75 90 72 95 70" stroke="#D2691E" stroke-width="3" stroke-linecap="round"/>
  <path d="M80 95C80 95 85 88 90 85C95 82 100 80 105 78" stroke="#D2691E" stroke-width="3" stroke-linecap="round"/>
  <path d="M100 40C100 40 95 35 95 30C95 25 100 20 105 20C110 20 115 25 115 30C115 35 110 40 105 40" fill="#F5DEB3" opacity="0.7"/>
  <path d="M110 35C110 35 105 30 105 25C105 20 110 15 115 15C120 15 125 20 125 25C125 30 120 35 115 35" fill="#F5DEB3" opacity="0.6"/>
  <text x="100" y="170" font-family="Arial, sans-serif" font-size="24" font-weight="bold" fill="#FFFFFF" text-anchor="middle">CW</text>
</svg>
